<svg height='100px' width='100px'  fill="#6ccbed" xmlns="http://www.w3.org/2000/svg" xmlns:xlink="http://www.w3.org/1999/xlink" version="1.1" x="0px" y="0px" viewBox="0 0 100 100" enable-background="new 0 0 100 100" xml:space="preserve"><g><g><path d="M34.828,94.054c10.019,1.176,20.273,1.177,30.387-0.017c6.162-1.542,13.279-8.659,14.839-14.915    c1.022-8.713,1.166-17.197,0.434-25.824c-0.845,0.299-1.752,0.464-2.69,0.464c-0.49,0-0.976-0.043-1.451-0.13    c-0.067,2.43-1.576,4.688-3.993,5.832c-2.29,1.086-5.153,0.972-7.323-0.243c-0.314,0.76-0.78,1.447-1.354,2.045v19.719    c0,4.273-3.477,7.75-7.75,7.75h-11.85c-4.273,0-7.75-3.477-7.75-7.75V62.198c-1.099,0.13-2.229,0.055-3.302-0.273    c-2.534-0.773-4.365-2.677-4.9-5.001c-0.898,0.339-1.866,0.515-2.848,0.515c-1.675,0-3.257-0.498-4.575-1.44    c-0.484-0.346-0.897-0.744-1.264-1.167c-0.625,8.34-0.475,16.342,0.476,24.385C21.455,85.378,28.572,92.495,34.828,94.054z"></path><path d="M87.572,37.456l0.126-0.018c0-0.029-0.007-0.057-0.008-0.086l-0.118,0c-0.015-2.448-1.979-4.599-4.671-5.116    c-0.16-0.031-0.29-0.124-0.397-0.24c-0.031-0.022-0.066-0.034-0.095-0.062c-0.298-0.288-0.307-0.762-0.02-1.061    c0.233-0.243,0.454-0.487,0.671-0.731c0.968-1.768,0.761-3.914-0.638-5.515c-1.13-1.297-2.835-2.041-4.681-2.041    c-0.701,0-1.39,0.109-2.045,0.325c-0.249,0.083-0.518,0.028-0.718-0.139c-0.198-0.167-0.297-0.426-0.259-0.684    c0.32-2.165-0.923-4.306-3.095-5.329c-2.121-1-4.837-0.718-6.635,0.659c-0.202,0.155-0.469,0.196-0.708,0.111    s-0.419-0.287-0.478-0.534c-0.491-2.074-2.314-3.674-4.649-4.083c-0.013-0.001-0.024-0.003-0.035-0.005    c-2.325-0.401-4.716,0.496-6.03,2.237c-0.152,0.2-0.396,0.314-0.646,0.296c-0.252-0.016-0.479-0.158-0.604-0.377    c-1.072-1.878-3.261-3.011-5.658-2.872c-2.367,0.136-4.411,1.51-5.207,3.5c-0.094,0.235-0.3,0.407-0.547,0.457    c-0.246,0.051-0.504-0.027-0.683-0.207c-1.559-1.574-4.126-2.188-6.375-1.494c-0.022,0.007-0.046,0.013-0.068,0.018    c-2.264,0.725-3.796,2.56-3.909,4.693c-0.014,0.256-0.157,0.488-0.382,0.614c-0.222,0.126-0.495,0.129-0.723,0.007    c-0.927-0.498-1.991-0.761-3.078-0.761c-1.366,0-2.652,0.404-3.719,1.17c-1.996,1.436-2.726,3.83-1.814,5.959    c0.104,0.242,0.072,0.521-0.082,0.735c-0.154,0.214-0.396,0.336-0.673,0.307c-2.683-0.239-5.213,1.206-6.132,3.432    c-0.945,2.289,0.044,4.909,2.353,6.229c0.233,0.133,0.377,0.38,0.378,0.649s-0.142,0.517-0.374,0.651    c-2.334,1.351-3.286,3.915-2.316,6.237c0.931,2.216,3.483,3.651,6.149,3.4c0.259-0.023,0.519,0.092,0.674,0.305    c0.156,0.213,0.188,0.492,0.085,0.735c-0.903,2.131-0.166,4.522,1.834,5.951c1.062,0.76,2.343,1.161,3.702,1.161    c1.094,0,2.161-0.267,3.09-0.77c0.226-0.123,0.499-0.121,0.723,0.004s0.369,0.356,0.384,0.612c0.123,2.156,1.69,4.003,3.991,4.705    c2.252,0.689,4.813,0.072,6.371-1.505c0.142-0.144,0.335-0.223,0.533-0.223c0.049,0,0.099,0.005,0.148,0.015    c0.247,0.05,0.453,0.221,0.548,0.456c0.799,1.99,2.846,3.359,5.214,3.488c0.129,0.008,0.252,0.011,0.373,0.011    c2.241,0,4.264-1.108,5.277-2.891c0.125-0.219,0.352-0.361,0.603-0.378c0.249-0.015,0.495,0.094,0.647,0.295    c1.317,1.737,3.715,2.632,6.04,2.23c2.354-0.408,4.186-2.018,4.669-4.1c0.058-0.248,0.236-0.449,0.476-0.536    c0.238-0.088,0.504-0.046,0.708,0.107c1.812,1.375,4.523,1.651,6.64,0.648c2.173-1.029,3.412-3.175,3.086-5.34    c-0.039-0.257,0.058-0.516,0.256-0.684c0.2-0.167,0.474-0.22,0.717-0.141c0.65,0.211,1.333,0.318,2.028,0.318    c1.854,0,3.565-0.749,4.691-2.055c1.629-1.881,1.638-4.508,0.022-6.391c-0.174-0.203-0.227-0.482-0.14-0.734    c0.088-0.252,0.303-0.439,0.564-0.49C85.622,42.065,87.572,39.904,87.572,37.456z"></path><path d="M44.076,87.236h11.85c3.446,0,6.25-2.804,6.25-6.25V62.467c-0.804,0.482-1.716,0.829-2.702,1    c-2.51,0.436-5.109-0.367-6.814-2.035c-1.381,1.748-3.599,2.8-6.009,2.8c-0.152,0-0.307-0.004-0.462-0.014    c-2.567-0.14-4.846-1.483-6.059-3.504c-0.683,0.517-1.469,0.905-2.304,1.167v19.104C37.826,84.433,40.63,87.236,44.076,87.236z     M41.5,77.556c0.414,0,0.75,0.336,0.75,0.75c0,1.93,1.57,3.5,3.5,3.5s3.5-1.57,3.5-3.5v-5.244l-5.119-2.225    c-0.38-0.165-0.554-0.607-0.389-0.987c0.165-0.38,0.609-0.551,0.986-0.389L50,71.752l5.273-2.291    c0.38-0.162,0.822,0.009,0.986,0.389c0.165,0.38-0.009,0.822-0.389,0.987l-5.121,2.225v5.243c0,1.93,1.57,3.5,3.5,3.5    c1.931,0,3.502-1.57,3.502-3.5c0-0.414,0.336-0.75,0.75-0.75s0.75,0.336,0.75,0.75c0,2.757-2.244,5-5.002,5    c-1.802,0-3.37-0.967-4.25-2.4c-0.88,1.433-2.448,2.4-4.25,2.4c-2.757,0-5-2.243-5-5C40.75,77.892,41.086,77.556,41.5,77.556z"></path><path d="M76.269,21.222c0.483-0.089,0.976-0.134,1.474-0.134c2.279,0,4.397,0.932,5.812,2.555    c0.976,1.118,1.501,2.441,1.595,3.784c2.117-3.232,3.056-6.527,3.343-9.543c0.142-4.995-1.206-9.095-1.946-10.944L75.334,18.15    C75.898,19.084,76.235,20.132,76.269,21.222z"></path><path d="M20.617,18.971c1.28-0.919,2.812-1.408,4.432-1.439L13.14,5.623c-1.168,2.952-3.982,12.152,1.745,20.834    c0.935-0.452,1.978-0.727,3.064-0.781C17.365,23.185,18.36,20.594,20.617,18.971z"></path></g></g></svg>